<svg width="48" height="48" viewBox="0 0 48 48" fill="none" xmlns="http://www.w3.org/2000/svg">
<g clip-path="url(#clip0_441_7)">
<path fill-rule="evenodd" clip-rule="evenodd" d="M27.7539 45.7504H20.246C19.0369 45.7504 18.0808 44.8225 18.0808 43.6133V38.6643C16.5623 37.9894 15.297 37.2583 14.2565 36.4429L9.92614 38.9174C8.88571 39.5079 7.64846 39.1705 7.00171 38.0457L3.26181 31.6907C2.69942 30.6784 2.98062 29.2724 4.02104 28.6819L8.35144 26.2074C8.18273 24.464 8.18273 23.536 8.35144 21.7926L4.02104 19.3181C2.41823 18.3902 3.12122 16.2812 3.26181 16.2812L7.00171 9.92618C7.62034 8.8014 8.88571 8.49209 9.92614 9.0826L14.2565 11.5571C15.297 10.7135 16.5623 9.98242 18.0808 9.33567V4.38664C18.0808 3.1775 19.0369 2.22144 20.246 2.22144H27.7539C28.963 2.22144 29.9191 3.1775 29.9191 4.38664V9.33567C31.4376 9.98242 32.6748 10.7135 33.7434 11.5571L38.0738 9.0826C39.1142 8.49209 40.3514 8.8014 40.9701 9.92618L44.71 16.3093C45.3005 17.3216 44.9912 18.7276 43.9789 19.3181L39.6203 21.7926C39.7891 23.536 39.8172 24.464 39.6203 26.2074L43.9789 28.6819C45.5817 29.6098 44.8787 31.6907 44.71 31.6907L40.9701 38.0457C40.3514 39.1705 39.1142 39.5079 38.0738 38.8893L33.7434 36.4429C32.7029 37.2583 31.4376 37.9894 29.9191 38.6362V43.6133C29.9191 44.8225 28.963 45.7504 27.7539 45.7504ZM14.3409 8.60456C14.0878 8.60456 13.8347 8.46397 13.6941 8.23901L11.4446 4.38664C10.9384 3.54305 12.2319 2.78383 12.7381 3.62741L14.9876 7.47978C15.2688 8.01405 14.8752 8.60456 14.3409 8.60456ZM5.23018 25.0264H0.731057C-0.253126 25.0264 -0.253126 23.536 0.731057 23.536H5.23018C6.21436 23.536 6.21436 25.0264 5.23018 25.0264ZM12.6537 45.0193C12.0913 45.0193 11.6977 44.4007 12.007 43.8945L14.2565 40.0422C14.7346 39.1986 16.0281 39.9297 15.55 40.8014L13.3005 44.6257C13.1599 44.8787 12.9068 45.0193 12.6537 45.0193ZM35.9086 44.7381C35.6555 44.7381 35.4024 44.5975 35.2618 44.3445L33.0123 40.5202C32.5061 39.6485 33.7996 38.9174 34.3057 39.761L36.5553 43.6133C36.8646 44.1195 36.471 44.7381 35.9086 44.7381ZM47.2688 24.464H42.7697C41.7855 24.464 41.7855 22.9736 42.7697 22.9736H47.2688C48.253 22.9736 48.253 24.464 47.2688 24.464ZM33.0966 8.32337C32.5342 8.32337 32.1687 7.70474 32.4499 7.19859L34.6994 3.34622C35.2056 2.50263 36.4991 3.26186 35.9929 4.10544L33.7434 7.95782C33.6028 8.18277 33.3497 8.32337 33.0966 8.32337ZM20.6115 29.2162C17.9402 28.3445 18.6994 24.3796 21.3708 24.3796C24.0984 24.3796 24.9701 28.3445 22.13 29.2162V30.6503C22.13 31.9156 21.1458 32.8998 19.8804 32.8998H17.6871C24.3796 37.6239 34.2776 33.5466 34.84 24.7452H28.485C27.4165 24.7452 27.6414 26.0949 27.6414 27.1072C30.4534 28.0633 29.7223 32.2531 26.9103 32.2531C23.9015 32.2531 23.2829 27.9789 26.1511 27.1072V25.5887C26.1511 24.2671 27.1915 23.2548 28.485 23.2548H34.84C34.5026 17.7434 30.2284 13.4974 24.7451 13.1318V17.0685C27.6695 17.884 26.9666 22.13 23.9859 22.13C21.0333 22.13 20.3304 17.884 23.2548 17.0685V13.1318C18.3901 13.4411 14.5096 16.8155 13.413 21.3708H16.0281C16.3655 20.2742 17.3778 19.4868 18.5588 19.4868C19.9367 19.4868 21.0896 20.696 21.0896 22.13C21.0896 23.536 19.9367 24.7452 18.5588 24.7452C17.3778 24.7452 16.3655 23.9578 16.0281 22.8612H13.1599C12.8506 26.0949 13.891 29.1599 15.9718 31.4095H19.8804C20.8365 31.4095 20.6115 30.2285 20.6115 29.2162ZM21.3708 25.8699C20.2179 25.8699 20.0492 27.8383 21.3708 27.8383C22.8049 27.8383 22.6362 25.8699 21.3708 25.8699ZM15.2407 32.7873C15.1564 32.7311 15.072 32.6467 14.9876 32.5343C12.8224 30.2285 11.6133 27.2197 11.6133 23.9859C11.6133 23.3954 11.6133 22.2425 11.8101 21.7364C12.2601 19.2619 13.4411 17.0123 15.2126 15.2126C20.0492 10.4042 27.9507 10.4042 32.7592 15.2126C37.5957 20.0492 37.5957 27.9508 32.7592 32.7592C27.9507 37.5677 20.0773 37.5958 15.2407 32.7873ZM18.5588 21.0053C17.0685 21.0053 17.0685 23.2548 18.5588 23.2548C19.9086 23.2548 19.9086 21.0053 18.5588 21.0053ZM26.9103 28.4851C25.42 28.4851 25.42 30.7627 26.9103 30.7627C28.2601 30.7627 28.2601 28.4851 26.9103 28.4851ZM23.9859 18.4464C22.4393 18.4464 22.5799 20.6116 23.9859 20.6116C25.3919 20.6116 25.5606 18.4464 23.9859 18.4464ZM14.3409 34.7838C14.5096 34.7838 14.6783 34.8401 14.8189 34.9525C15.9156 35.9086 17.3216 36.7241 19.1212 37.4552C19.4024 37.5677 19.5992 37.8489 19.5992 38.1582V43.6133C19.5992 44.0633 19.9367 44.2601 20.246 44.2601H27.7539C28.0632 44.2601 28.4007 44.0633 28.4007 43.6133V38.1582C28.4007 37.8489 28.5975 37.5677 28.8787 37.4552C30.6783 36.7241 32.0843 35.9086 33.181 34.9525C33.4059 34.7557 33.7434 34.7276 34.0246 34.8682L38.8049 37.5958C39.1704 37.7926 39.4797 37.6801 39.6766 37.3146L43.4446 30.9315C43.5852 30.6503 43.5289 30.1722 43.2478 30.0035L38.4393 27.2759C38.1862 27.1072 38.0456 26.826 38.0738 26.5448C38.2987 24.3515 38.355 23.6766 38.0738 21.4552C38.0456 21.1459 38.1862 20.8647 38.4393 20.7241L43.2478 17.9965C43.5008 17.8278 43.6133 17.3497 43.4446 17.0404L39.6766 10.6854C39.4797 10.3199 39.1704 10.1793 38.8049 10.4042L34.0246 13.1037C33.7715 13.2724 33.4059 13.2443 33.181 13.0193C32.0562 12.0914 30.6502 11.2478 28.8787 10.5167C28.5975 10.4042 28.4007 10.123 28.4007 9.84182V4.38664C28.4007 3.93673 28.0632 3.73989 27.7539 3.73989H20.246C19.9367 3.73989 19.5992 3.93673 19.5992 4.38664V9.84182C19.5992 10.123 19.4024 10.4042 19.1212 10.5167C17.3216 11.2478 15.9156 12.0914 14.8189 13.0193C14.5659 13.2443 14.2284 13.2724 13.9472 13.1037L9.16691 10.4042C8.80136 10.1793 8.52016 10.3199 8.29521 10.6854L4.55531 17.0404C4.38659 17.3216 4.44283 17.8278 4.75215 17.9965L9.53246 20.7241C9.81366 20.8647 9.95426 21.174 9.92614 21.4552C9.67306 23.6485 9.64494 24.2952 9.92614 26.5448C9.95426 26.826 9.81366 27.1353 9.53246 27.2759L4.75215 30.0035C4.47095 30.1441 4.38659 30.6221 4.55531 30.9315L8.29521 37.3146C8.49204 37.6801 8.80136 37.7926 9.16691 37.5958L13.9472 34.8682C14.0878 34.8119 14.2003 34.7838 14.3409 34.7838Z" fill="#2991D4"/>
</g>
<defs>
<clipPath id="clip0_441_7">
<rect width="48" height="48" fill="white"/>
</clipPath>
</defs>
</svg>
