<svg width="44" height="44" viewBox="0 0 44 44" fill="none" xmlns="http://www.w3.org/2000/svg">
<path d="M37.6942 9.74875L22.5693 2.87375C22.2062 2.70875 21.7938 2.70875 21.4308 2.87375L6.30575 9.74875C5.81487 9.9715 5.5 10.461 5.5 11V14.883C5.5 23.232 9.19325 31.0723 15.6283 36.3908L21.1228 40.9351C21.3785 41.1441 21.6879 41.25 22 41.25C22.3121 41.25 22.6215 41.1441 22.8759 40.9351L28.3718 36.3921C34.8081 31.0709 38.5 23.232 38.5 14.883V11C38.5 10.461 38.1851 9.9715 37.6942 9.74875ZM35.75 14.883C35.75 22.4084 32.4225 29.4759 26.62 34.2719L22 38.0916L17.3814 34.2719C11.5789 29.4772 8.25 22.4097 8.25 14.883V11.8855L22 5.63613L35.75 11.8855V14.883Z" fill="#2991D4"/>
<path d="M18.1871 11.5033C17.9272 11.8209 17.8213 12.2403 17.9025 12.6445L20.6525 26.3945C20.7803 27.038 21.3441 27.5 22 27.5C22.6558 27.5 23.2196 27.038 23.3475 26.3945L26.0975 12.6445C26.1786 12.2403 26.0727 11.8209 25.8128 11.5033C25.5516 11.1843 25.1625 11 24.75 11H19.25C18.8375 11 18.4483 11.1843 18.1871 11.5033ZM23.0725 13.75L22 19.1139L20.9275 13.75H23.0725Z" fill="#2991D4"/>
<path d="M22 34.375C23.5188 34.375 24.75 33.1438 24.75 31.625C24.75 30.1062 23.5188 28.875 22 28.875C20.4812 28.875 19.25 30.1062 19.25 31.625C19.25 33.1438 20.4812 34.375 22 34.375Z" fill="#2991D4"/>
</svg>
