<?xml version="1.0" encoding="UTF-8"?>
<svg id="Layer_2" data-name="Layer 2" xmlns="http://www.w3.org/2000/svg" xmlns:xlink="http://www.w3.org/1999/xlink" viewBox="0 0 2093.45 375.07">
  <defs>
    <style>
      .cls-1 {
        fill: url(#linear-gradient);
      }

      .cls-1, .cls-2, .cls-3, .cls-4, .cls-5, .cls-6, .cls-7, .cls-8, .cls-9, .cls-10, .cls-11, .cls-12, .cls-13 {
        stroke-width: 0px;
      }

      .cls-2 {
        fill: url(#linear-gradient-11);
      }

      .cls-3 {
        fill: url(#linear-gradient-12);
      }

      .cls-4 {
        fill: url(#linear-gradient-13);
      }

      .cls-5 {
        fill: url(#linear-gradient-10);
      }

      .cls-6 {
        fill: url(#linear-gradient-4);
      }

      .cls-7 {
        fill: url(#linear-gradient-2);
      }

      .cls-8 {
        fill: url(#linear-gradient-3);
      }

      .cls-9 {
        fill: url(#linear-gradient-8);
      }

      .cls-10 {
        fill: url(#linear-gradient-9);
      }

      .cls-11 {
        fill: url(#linear-gradient-7);
      }

      .cls-12 {
        fill: url(#linear-gradient-5);
      }

      .cls-13 {
        fill: url(#linear-gradient-6);
      }
    </style>
    <linearGradient id="linear-gradient" x1="320.82" y1="22.29" x2="34.44" y2="336.97" gradientUnits="userSpaceOnUse">
      <stop offset="0" stop-color="#0f8edf"/>
      <stop offset="1" stop-color="#2faefe"/>
    </linearGradient>
    <linearGradient id="linear-gradient-2" x1="124.82" y1="238.12" x2="357.14" y2="238.12" gradientUnits="userSpaceOnUse">
      <stop offset="0" stop-color="#e6e6e6"/>
      <stop offset="1" stop-color="#b6b6b6"/>
    </linearGradient>
    <linearGradient id="linear-gradient-3" x1="201.86" y1="214.09" y2="214.09" xlink:href="#linear-gradient-2"/>
    <linearGradient id="linear-gradient-4" x1="146.68" y1="371.41" x2="1072.68" y2=".48" gradientUnits="userSpaceOnUse">
      <stop offset="0" stop-color="#0f8edf"/>
      <stop offset="1" stop-color="#2faefe"/>
    </linearGradient>
    <linearGradient id="linear-gradient-5" x1="171.66" y1="433.77" x2="1097.66" y2="62.84" xlink:href="#linear-gradient-4"/>
    <linearGradient id="linear-gradient-6" x1="202.67" y1="511.19" x2="1128.67" y2="140.26" xlink:href="#linear-gradient-4"/>
    <linearGradient id="linear-gradient-7" x1="227.19" y1="572.4" x2="1153.19" y2="201.47" xlink:href="#linear-gradient-4"/>
    <linearGradient id="linear-gradient-8" x1="238.45" y1="600.51" x2="1164.46" y2="229.59" xlink:href="#linear-gradient-4"/>
    <linearGradient id="linear-gradient-9" x1="1340.09" y1="190.06" x2="2180.77" y2="195.98" xlink:href="#linear-gradient-2"/>
    <linearGradient id="linear-gradient-10" x1="1339.94" y1="211.62" x2="2180.62" y2="217.54" xlink:href="#linear-gradient-2"/>
    <linearGradient id="linear-gradient-11" x1="1339.96" y1="209.31" x2="2180.63" y2="215.23" xlink:href="#linear-gradient-2"/>
    <linearGradient id="linear-gradient-12" x1="1340.13" y1="184.21" x2="2180.81" y2="190.13" xlink:href="#linear-gradient-2"/>
    <linearGradient id="linear-gradient-13" x1="1339.96" y1="208.81" x2="2180.64" y2="214.73" xlink:href="#linear-gradient-2"/>
  </defs>
  <g id="Layer_1-2" data-name="Layer 1">
    <g>
      <path class="cls-1" d="M354.22,111.6s-114.4-68.49-204.03-18.22c-89.63,50.28-96.18,144.28-10.2,239.73,0,0-27.69-45.91-27.69-85.98,0,0,48.09,70.68,138.45,110.76,0,0-75.05,49.55-175.61-19.67-100.56-69.22-99.83-229.53,0-298.02S290.83-12.27,354.22,111.6Z"/>
      <path class="cls-7" d="M357.14,375.07v-34.66s-142.18-64.85-180.03-145c-37.84-80.15,33.56-106.38,117.36-61.21,0,0-69.22-51.01-136.26-26.23-67.04,24.77-19.67,116.59,24.77,154.48,44.45,37.89,109.3,97.74,174.15,112.63Z"/>
      <path class="cls-8" d="M357.14,301.06v-34.25s-102.74-38.62-112.21-82.34c-9.47-43.72,42.26-61.94,109.3-16.03,0,0-91.81-71.07-140.63-26.79-48.82,44.28,65.58,133.17,143.55,159.41Z"/>
    </g>
    <g>
      <g>
        <path class="cls-6" d="M613.08,265.81c2.49,4.94,4.55,10.95,6.21,18.03,1.66,7.08,2.69,14.27,3.11,21.57h-36.66c-.42-4.3-.93-8.32-1.55-12.07-.62-3.76-1.66-7.24-3.11-10.46-4.77,1.71-9.94,2.95-15.53,3.7-5.59.75-11.08,1.13-16.47,1.13-14.71,0-28.12-2.57-40.23-7.72-12.12-5.15-22.52-12.18-31.22-21.08-8.7-8.9-15.43-19.2-20.19-30.9-4.77-11.69-7.15-24.09-7.15-37.18s2.38-25.48,7.15-37.18c4.76-11.69,11.5-21.94,20.19-30.74,8.7-8.8,19.11-15.82,31.22-21.08,12.12-5.26,25.52-7.89,40.23-7.89s28.17,2.63,40.39,7.89c12.22,5.26,22.68,12.29,31.38,21.08,8.7,8.8,15.48,19.05,20.35,30.74,4.86,11.7,7.3,24.09,7.3,37.18,0,14.81-3.11,28.76-9.32,41.85-6.21,13.09-14.91,24.14-26.1,33.15ZM540.39,206.59c4.76.21,9.68,1.08,14.76,2.57,5.07,1.5,9.99,3.43,14.76,5.79,4.76,2.36,9.27,5.1,13.51,8.21,4.24,3.11,7.82,6.28,10.72,9.5,4.97-5.58,8.8-11.91,11.49-18.99,2.69-7.08,4.04-14.7,4.04-22.85s-1.45-16.2-4.35-23.5c-2.9-7.29-7.04-13.68-12.43-19.15-5.39-5.47-11.81-9.82-19.26-13.04-7.46-3.22-15.64-4.83-24.54-4.83s-17.04,1.61-24.39,4.83c-7.35,3.22-13.67,7.56-18.95,13.04-5.28,5.47-9.37,11.86-12.27,19.15-2.9,7.3-4.35,15.13-4.35,23.5s1.45,16.26,4.35,23.66c2.9,7.4,6.99,13.84,12.27,19.31,5.28,5.47,11.6,9.82,18.95,13.04,7.35,3.22,15.48,4.83,24.39,4.83,5.18,0,9.84-.53,13.98-1.61-6.01-4.94-13.57-8.05-22.68-9.34v-34.12Z"/>
        <path class="cls-12" d="M745.74,252.62c12.01,0,21.33-3.75,27.96-11.27,6.63-7.51,9.94-17.81,9.94-30.9v-67.6h36.35v69.21c0,10.94-1.66,21.03-4.97,30.26-3.32,9.23-8.13,17.17-14.45,23.82-6.32,6.65-14.09,11.86-23.3,15.61-9.22,3.75-19.63,5.63-31.22,5.63s-22.27-1.88-31.38-5.63c-9.12-3.75-16.88-8.96-23.3-15.61-6.42-6.65-11.29-14.59-14.6-23.82-3.32-9.22-4.97-19.31-4.97-30.26v-69.21h36.35v67.6c0,13.09,3.31,23.39,9.94,30.9,6.63,7.51,15.85,11.27,27.65,11.27Z"/>
        <path class="cls-13" d="M959.79,269.68c-2.48,3.01-5.39,5.58-8.7,7.72-3.31,2.15-6.83,3.97-10.56,5.47-3.73,1.5-7.51,2.62-11.34,3.38-3.84.75-7.41,1.13-10.72,1.13-11.18,0-21.39-1.77-30.6-5.31-9.22-3.54-17.14-8.58-23.77-15.13-6.63-6.54-11.76-14.32-15.38-23.34-3.63-9.01-5.44-18.99-5.44-29.94s1.97-21.29,5.9-30.42c3.93-9.12,9.32-16.9,16.16-23.34,6.84-6.44,14.86-11.37,24.08-14.81,9.21-3.43,19.21-5.15,29.98-5.15s21.49,1.72,30.91,5.15c9.42,3.44,17.5,8.48,24.23,15.13,6.73,6.65,11.96,14.92,15.69,24.79,3.73,9.87,5.59,21.25,5.59,34.12v65.34h-36.04v-14.81ZM880.26,213.67c0,6.23,1.03,11.75,3.11,16.58,2.07,4.83,4.86,8.91,8.39,12.23,3.52,3.33,7.66,5.85,12.43,7.56,4.76,1.72,9.83,2.57,15.22,2.57s10.77-.8,15.53-2.41c4.76-1.61,8.96-4.02,12.58-7.24,3.62-3.22,6.47-7.29,8.54-12.23,2.07-4.93,3.11-10.62,3.11-17.06,0-5.79-1.04-11.11-3.11-15.93-2.07-4.83-4.92-8.9-8.54-12.23-3.63-3.32-7.82-5.95-12.58-7.89-4.77-1.93-9.94-2.9-15.53-2.9s-10.46.86-15.22,2.58c-4.77,1.72-8.91,4.24-12.43,7.56-3.52,3.33-6.32,7.4-8.39,12.23-2.07,4.83-3.11,10.36-3.11,16.58Z"/>
        <path class="cls-11" d="M1097.73,174.72c-11.81,0-21.02,3.76-27.65,11.27-6.63,7.51-9.94,17.81-9.94,30.9v67.6h-36.35v-69.21c0-10.95,1.66-21.03,4.97-30.26,3.31-9.22,8.18-17.17,14.6-23.82,6.42-6.65,14.19-11.85,23.3-15.61,9.11-3.75,19.57-5.63,31.38-5.63s22,1.88,31.22,5.63c9.21,3.76,16.98,8.96,23.3,15.61,6.32,6.65,11.13,14.6,14.45,23.82,3.31,9.23,4.97,19.31,4.97,30.26v69.21h-36.35v-67.6c0-13.09-3.32-23.39-9.94-30.9-6.63-7.51-15.95-11.27-27.96-11.27Z"/>
        <path class="cls-9" d="M1234.74,112.6v30.26h86.68v34.44h-86.68v29.61c0,6.44.47,12.45,1.4,18.03.93,5.58,2.53,10.46,4.82,14.65,2.28,4.18,5.38,7.46,9.32,9.82,3.93,2.36,9.01,3.54,15.22,3.54,8.9,0,16.31-2.9,22.21-8.69,5.9-5.79,10.3-13.41,13.2-22.86l28.89,15.45c-6.01,16.53-14.6,29.08-25.79,37.66-11.18,8.59-23.92,12.88-38.21,12.88-22.99,0-39.98-7.08-50.95-21.25-10.98-14.16-16.47-34.65-16.47-61.48v-92.06h36.35Z"/>
      </g>
      <path class="cls-10" d="M1446.31,93.93c14.7,0,28.84,2.09,42.41,6.28,13.56,4.19,26.35,11.64,38.37,22.37l-21.75,29.29c-8.7-7.94-17.86-13.52-27.49-16.74-9.63-3.22-20.15-4.83-31.53-4.83-8.91,0-17.04,1.61-24.39,4.83-7.35,3.22-13.72,7.56-19.11,13.04-5.39,5.47-9.58,11.86-12.58,19.15-3,7.3-4.5,15.13-4.5,23.5,0,9.45,1.71,17.92,5.13,25.43,3.42,7.51,8.08,13.84,13.98,18.99s12.89,9.12,20.97,11.91c8.08,2.79,16.78,4.18,26.1,4.18,13.05,0,23.56-2.36,31.53-7.08,7.97-4.72,11.96-11.59,11.96-20.6,0-3.65-1.4-7.03-4.19-10.14-2.8-3.11-7.82-4.67-15.07-4.67h-60.27v-36.05h61.2c19.88,0,34.33,4.72,43.34,14.16,9.01,9.45,13.52,21.57,13.52,36.37,0,9.45-1.86,18.08-5.59,25.91-3.73,7.84-9.27,14.6-16.62,20.28-7.35,5.69-16.31,10.14-26.87,13.36-10.56,3.22-22.68,4.83-36.35,4.83-14.91,0-28.64-2.41-41.16-7.24-12.53-4.83-23.25-11.53-32.16-20.12-8.91-8.58-15.84-18.83-20.82-30.74-4.97-11.91-7.46-24.95-7.46-39.11s2.38-26.44,7.15-38.14c4.76-11.69,11.5-21.89,20.19-30.58,8.7-8.69,19.15-15.5,31.38-20.44,12.22-4.93,25.79-7.4,40.7-7.4Z"/>
      <path class="cls-5" d="M1593.58,230.41c2.48,7.51,7.04,13.31,13.67,17.38,6.63,4.08,14.6,6.12,23.92,6.12,5.38,0,11.34-.91,17.86-2.74,6.52-1.82,13.1-5.85,19.73-12.07l23.61,24.46c-7.87,8.16-17.09,14.16-27.65,18.03-10.56,3.86-22.06,5.79-34.49,5.79-10.77,0-20.82-1.72-30.14-5.15s-17.4-8.31-24.23-14.65c-6.84-6.33-12.17-14-16-23.01-3.84-9.01-5.75-19.1-5.75-30.26s1.86-21.29,5.59-30.42c3.73-9.12,8.96-16.95,15.69-23.5,6.73-6.54,14.76-11.59,24.08-15.13,9.32-3.54,19.47-5.31,30.45-5.31,8.08,0,15.95,1.13,23.61,3.38,7.66,2.25,14.49,5.47,20.51,9.66,6,4.19,10.87,9.34,14.6,15.45,3.73,6.12,5.59,13.15,5.59,21.08s-1.4,14.54-4.19,19.8c-2.8,5.26-6.73,9.45-11.81,12.55-5.08,3.11-11.08,5.31-18.02,6.6-6.94,1.29-14.55,1.93-22.83,1.93h-43.81ZM1638.62,199.5c5.38,0,9.89-.64,13.51-1.93,3.62-1.29,5.44-3.97,5.44-8.05,0-4.93-2.75-8.85-8.23-11.75-5.49-2.9-11.96-4.35-19.42-4.35-9.32,0-17.45,2.09-24.39,6.28-6.94,4.19-11.55,10.78-13.83,19.8h46.91Z"/>
      <path class="cls-2" d="M1789.92,174.72c-11.81,0-21.02,3.76-27.65,11.27-6.63,7.51-9.94,17.81-9.94,30.9v67.6h-36.35v-69.21c0-10.95,1.66-21.03,4.97-30.26,3.31-9.22,8.18-17.17,14.6-23.82,6.42-6.65,14.19-11.85,23.3-15.61,9.11-3.75,19.57-5.63,31.38-5.63s22,1.88,31.22,5.63c9.21,3.76,16.98,8.96,23.3,15.61,6.32,6.65,11.13,14.6,14.45,23.82,3.31,9.23,4.97,19.31,4.97,30.26v69.21h-36.35v-67.6c0-13.09-3.32-23.39-9.94-30.9-6.63-7.51-15.95-11.27-27.96-11.27Z"/>
      <path class="cls-3" d="M1930.04,91.99v32.19h-36.35v-32.19h36.35ZM1930.04,142.85v141.63h-36.35v-141.63h36.35Z"/>
      <path class="cls-4" d="M1992.79,230.41c2.48,7.51,7.04,13.31,13.67,17.38,6.63,4.08,14.6,6.12,23.92,6.12,5.38,0,11.34-.91,17.86-2.74,6.52-1.82,13.1-5.85,19.73-12.07l23.61,24.46c-7.87,8.16-17.09,14.16-27.65,18.03-10.56,3.86-22.06,5.79-34.49,5.79-10.77,0-20.82-1.72-30.14-5.15-9.32-3.43-17.4-8.31-24.23-14.65-6.84-6.33-12.17-14-16-23.01-3.84-9.01-5.75-19.1-5.75-30.26s1.86-21.29,5.59-30.42c3.73-9.12,8.96-16.95,15.69-23.5,6.73-6.54,14.76-11.59,24.08-15.13,9.32-3.54,19.47-5.31,30.45-5.31,8.08,0,15.95,1.13,23.61,3.38,7.66,2.25,14.49,5.47,20.51,9.66,6,4.19,10.87,9.34,14.6,15.45,3.73,6.12,5.59,13.15,5.59,21.08s-1.4,14.54-4.19,19.8c-2.8,5.26-6.73,9.45-11.81,12.55-5.08,3.11-11.08,5.31-18.02,6.6-6.94,1.29-14.55,1.93-22.83,1.93h-43.81ZM2037.84,199.5c5.38,0,9.89-.64,13.51-1.93,3.62-1.29,5.44-3.97,5.44-8.05,0-4.93-2.75-8.85-8.23-11.75-5.49-2.9-11.96-4.35-19.42-4.35-9.32,0-17.45,2.09-24.39,6.28-6.94,4.19-11.55,10.78-13.83,19.8h46.91Z"/>
    </g>
  </g>
</svg>